<?xml version="1.0" encoding="UTF-8"?>
<svg width="512" height="512" version="1.1" viewBox="0 0 135.47 135.47" xmlns="http://www.w3.org/2000/svg">
 <g transform="translate(0 -161.53)">
  <g transform="scale(.85854 1.1648)" aria-label="H">
   <path d="m111.41 243.95v3.7635h-51.184v-3.7635q7.6776-0.90324 9.7851-2.1076 3.7635-2.2581 3.7635-8.5808v-34.624h-36.28v34.624q0 6.1722 3.7635 8.4303 2.4086 1.3549 9.7851 2.2581v3.7635h-50.732v-3.7635q6.0216-0.7527 7.527-1.3549 5.2689-1.957 5.2689-9.3335v-72.861q0-6.4732-3.914-8.7313-2.2581-1.3549-8.8819-1.957v-3.7635h50.732v3.7635q-6.4732 0-9.183 1.5054-4.3657 2.4086-4.3657 9.183v31.162h36.28v-31.162q0-5.2689-2.4086-7.6776-3.0108-3.0108-11.14-3.0108v-3.7635h51.184v3.7635q-6.1721 0-9.0324 1.656-4.2151 2.4086-4.2151 9.0324v72.861q0 6.0216 3.613 8.2797 2.4086 1.5054 9.6346 2.4086z" stroke-width=".25807"/>
  </g>
  <g aria-label="3">
   <path d="m102.79 247.09-1.6206-0.92604q2.0836-4.553 6.0193-7.717 5.0161-4.09 11.267-4.09 5.8649 0 9.4148 2.6238 3.5498 2.5466 3.5498 7.7942 0 3.9357-1.9292 6.4051-1.2347 1.5434-4.4759 3.5498 4.553 1.6978 6.9453 5.4019 2.4694 3.627 2.4694 8.18 0 8.2572-6.5595 14.276-6.5595 5.9421-16.669 5.9421-4.9389 0-8.1029-1.6977-3.5498-1.9292-3.5498-5.4019 0-1.7749 1.3891-3.0096 1.4662-1.3119 3.3955-1.3119 3.3955 0 7.4083 3.7813 4.0128 3.7813 6.1736 3.7813 3.2411 0 5.2476-1.9293 2.4694-2.3923 2.4694-7.254 0-8.0257-7.9485-12.424-2.3923-1.3119-7.5627-3.0868v-1.3119q4.3987-1.3891 6.4051-2.8553 3.627-2.701 3.627-7.254 0-3.627-2.0064-5.7878-2.0064-2.1608-6.1736-2.1608-3.4727 0-6.1736 2.5466-1.3119 1.2347-3.0096 3.9357z" stroke-width=".26458"/>
  </g>
 </g>
</svg>
