<?xml version="1.0" encoding="UTF-8"?>
<svg width="512" height="512" version="1.1" viewBox="0 0 135.47 135.47" xmlns="http://www.w3.org/2000/svg">
 <g transform="translate(0 -161.53)">
  <g transform="scale(.85854 1.1648)" aria-label="H">
   <path d="m111.41 243.95v3.7635h-51.184v-3.7635q7.6776-0.90324 9.7851-2.1076 3.7635-2.2581 3.7635-8.5808v-34.624h-36.28v34.624q0 6.1722 3.7635 8.4303 2.4086 1.3549 9.7851 2.2581v3.7635h-50.732v-3.7635q6.0216-0.7527 7.527-1.3549 5.2689-1.957 5.2689-9.3335v-72.861q0-6.4732-3.914-8.7313-2.2581-1.3549-8.8819-1.957v-3.7635h50.732v3.7635q-6.4732 0-9.183 1.5054-4.3657 2.4086-4.3657 9.183v31.162h36.28v-31.162q0-5.2689-2.4086-7.6776-3.0108-3.0108-11.14-3.0108v-3.7635h51.184v3.7635q-6.1721 0-9.0324 1.656-4.2151 2.4086-4.2151 9.0324v72.861q0 6.0216 3.613 8.2797 2.4086 1.5054 9.6346 2.4086z" stroke-width=".25807"/>
  </g>
  <g aria-label="2">
   <path d="m135.2 272.25-3.4727 16.283h-32.103v-1.7749q7.6398-8.18 11.19-12.347 5.4019-6.328 7.7942-10.727 2.8553-5.1704 2.8553-9.5691 0-3.0868-1.5434-5.7106-2.4694-4.1672-7.6398-4.1672-2.3151 0-4.2444 1.0032-3.3183 1.6977-5.1704 5.9421h-2.1608q2.0836-5.8649 4.9389-9.4919 4.9389-6.2508 12.039-6.2508 5.0161 0 8.8746 2.7781 5.4019 3.8585 5.4019 11.653 0 3.164-1.0804 5.9421-2.0064 5.0932-7.717 10.572l-12.502 11.884h11.653q6.0964 0 7.717-0.92604 1.6206-1.0032 3.3183-5.0932z" stroke-width=".26458"/>
  </g>
  <flowRoot fill="black" font-family="sans-serif" font-size="26.667px" letter-spacing="0px" word-spacing="0px" style="line-height:1.25" xml:space="preserve"><flowRegion><rect x="-122.86" y="-107.29" width="883.57" height="697.14"/></flowRegion><flowPara/></flowRoot>
 </g>
</svg>
